<?xml version="1.0" encoding="utf-8"?>
<!-- Generator: Adobe Illustrator 24.1.0, SVG Export Plug-In . SVG Version: 6.00 Build 0)  -->
<svg version="1.1" id="Layer_1" xmlns="http://www.w3.org/2000/svg" xmlns:xlink="http://www.w3.org/1999/xlink" x="0px" y="0px"
	 viewBox="0 0 364.13 89.67" style="enable-background:new 0 0 364.13 89.67;" xml:space="preserve">
<style type="text/css">
	.st0{fill:#FECB7F;}
	.st1{fill:#FBB040;}
	.st2{fill:#C28931;}
</style>
<g>
	<g>
		<g>
			
				<ellipse transform="matrix(0.7071 -0.7071 0.7071 0.7071 -42.3068 37.7245)" class="st0" cx="24.38" cy="69.93" rx="5.63" ry="5.63"/>
			
				<ellipse transform="matrix(0.7071 -0.7071 0.7071 0.7071 -30.591 66.0088)" class="st0" cx="64.38" cy="69.93" rx="5.63" ry="5.63"/>
		</g>
		<g>
			<path class="st0" d="M33.38,33.57c-1.86,0-3.37,1.51-3.37,3.37s1.51,3.37,3.37,3.37s3.37-1.51,3.37-3.37S35.24,33.57,33.38,33.57
				z"/>
			<path class="st0" d="M73.38,33.57c-1.86,0-3.37,1.51-3.37,3.37s1.51,3.37,3.37,3.37s3.37-1.51,3.37-3.37S75.24,33.57,73.38,33.57
				z"/>
			<path class="st0" d="M73.38,43.57c-1.86,0-3.37,1.51-3.37,3.37s1.51,3.37,3.37,3.37s3.37-1.51,3.37-3.37S75.24,43.57,73.38,43.57
				z"/>
			<path class="st0" d="M73.38,53.57c-1.86,0-3.37,1.51-3.37,3.37s1.51,3.37,3.37,3.37s3.37-1.51,3.37-3.37S75.24,53.57,73.38,53.57
				z"/>
			<path class="st0" d="M33.38,43.57c-1.86,0-3.37,1.51-3.37,3.37s1.51,3.37,3.37,3.37s3.37-1.51,3.37-3.37S35.24,43.57,33.38,43.57
				z"/>
			<path class="st0" d="M33.38,53.57c-1.86,0-3.37,1.51-3.37,3.37s1.51,3.37,3.37,3.37s3.37-1.51,3.37-3.37S35.24,53.57,33.38,53.57
				z"/>
		</g>
		<g>
			<g>
				<path class="st1" d="M33.38,23.57c-1.86,0-3.37,1.51-3.37,3.37s1.51,3.37,3.37,3.37s3.37-1.51,3.37-3.37
					S35.24,23.57,33.38,23.57z"/>
				<path class="st1" d="M43.38,23.57c-1.86,0-3.37,1.51-3.37,3.37s1.51,3.37,3.37,3.37s3.37-1.51,3.37-3.37
					S45.24,23.57,43.38,23.57z"/>
				<path class="st1" d="M53.38,23.57c-1.86,0-3.37,1.51-3.37,3.37s1.51,3.37,3.37,3.37s3.37-1.51,3.37-3.37
					S55.24,23.57,53.38,23.57z"/>
				<path class="st1" d="M63.38,30.3c1.86,0,3.37-1.51,3.37-3.37s-1.51-3.37-3.37-3.37s-3.37,1.51-3.37,3.37S61.53,30.3,63.38,30.3z
					"/>
				<path class="st1" d="M73.38,23.57c-1.86,0-3.37,1.51-3.37,3.37s1.51,3.37,3.37,3.37s3.37-1.51,3.37-3.37
					S75.24,23.57,73.38,23.57z"/>
			</g>
		</g>
		<g>
			<path class="st2" d="M33.38,13.57c-1.86,0-3.37,1.51-3.37,3.37s1.51,3.37,3.37,3.37s3.37-1.51,3.37-3.37S35.24,13.57,33.38,13.57
				z"/>
			<path class="st2" d="M43.38,13.57c-1.86,0-3.37,1.51-3.37,3.37s1.51,3.37,3.37,3.37s3.37-1.51,3.37-3.37S45.24,13.57,43.38,13.57
				z"/>
			<path class="st2" d="M53.38,13.57c-1.86,0-3.37,1.51-3.37,3.37s1.51,3.37,3.37,3.37s3.37-1.51,3.37-3.37S55.24,13.57,53.38,13.57
				z"/>
			<path class="st2" d="M63.38,20.3c1.86,0,3.37-1.51,3.37-3.37s-1.51-3.37-3.37-3.37s-3.37,1.51-3.37,3.37S61.53,20.3,63.38,20.3z"
				/>
			<path class="st2" d="M73.38,20.3c1.86,0,3.37-1.51,3.37-3.37s-1.51-3.37-3.37-3.37s-3.37,1.51-3.37,3.37S71.53,20.3,73.38,20.3z"
				/>
		</g>
	</g>
</g>
<g>
	<g>
		<path class="st1" d="M98.12,31.08h25.95c1,0,1.73,0.12,2.19,0.35s0.78,0.6,0.93,1.1c0.16,0.5,0.23,1.15,0.23,1.96
			c0,0.81-0.08,1.45-0.23,1.94c-0.16,0.48-0.42,0.82-0.79,1c-0.56,0.28-1.35,0.42-2.38,0.42h-8.92v23.48c0,0.72-0.02,1.24-0.07,1.59
			c-0.05,0.34-0.19,0.74-0.42,1.19c-0.23,0.45-0.65,0.77-1.24,0.96c-0.59,0.19-1.37,0.28-2.33,0.28c-0.96,0-1.73-0.09-2.31-0.28
			c-0.58-0.19-0.98-0.5-1.21-0.96c-0.23-0.45-0.37-0.86-0.42-1.21c-0.05-0.36-0.07-0.89-0.07-1.61V37.84h-8.96
			c-1,0-1.73-0.12-2.19-0.35c-0.47-0.23-0.78-0.6-0.93-1.1c-0.16-0.5-0.23-1.15-0.23-1.96c0-0.81,0.08-1.45,0.23-1.94
			c0.16-0.48,0.42-0.82,0.79-1C96.3,31.22,97.09,31.08,98.12,31.08z"/>
		<path class="st1" d="M135.32,65.24c-3.14,0-5.75-1.19-7.82-3.57c-2.07-2.38-3.1-5.28-3.1-8.71V44.8c0-0.75,0.02-1.29,0.07-1.63
			c0.05-0.34,0.18-0.75,0.4-1.21c0.44-0.84,1.65-1.26,3.64-1.26c2.18,0,3.45,0.59,3.83,1.77c0.19,0.5,0.28,1.29,0.28,2.38v8.17
			c0,1.28,0.37,2.27,1.1,2.99c0.73,0.72,1.71,1.07,2.94,1.07c1.23,0,2.22-0.37,2.99-1.12c0.76-0.75,1.14-1.73,1.14-2.94v-8.26
			c0-0.72,0.02-1.25,0.07-1.61c0.05-0.36,0.19-0.77,0.44-1.24c0.4-0.81,1.6-1.21,3.59-1.21c1.96,0,3.16,0.42,3.59,1.26
			c0.22,0.47,0.35,0.88,0.4,1.24c0.05,0.36,0.07,0.9,0.07,1.61v16.52c0,0.68-0.02,1.21-0.07,1.56s-0.19,0.75-0.44,1.19
			c-0.47,0.81-1.67,1.21-3.59,1.21c-1.9,0-3.07-0.37-3.5-1.12c-0.31-0.53-0.47-1.17-0.47-1.91c-0.12,0.22-0.4,0.53-0.84,0.93
			c-0.44,0.41-0.86,0.75-1.26,1.03C137.71,64.9,136.56,65.24,135.32,65.24z"/>
		<path class="st1" d="M166.96,49l-3.03-0.19v6.44c0,0.84,0.13,1.45,0.4,1.82c0.26,0.37,0.76,0.56,1.49,0.56
			c0.73,0,1.29,0.02,1.68,0.07c0.39,0.05,0.8,0.19,1.24,0.44c0.72,0.4,1.07,1.45,1.07,3.13c0,1.96-0.44,3.16-1.31,3.59
			c-0.47,0.22-0.88,0.35-1.24,0.4c-0.36,0.05-0.88,0.07-1.56,0.07c-3.24,0-5.69-0.73-7.37-2.19s-2.52-3.94-2.52-7.42v-6.91
			c-0.59,0.09-1.23,0.14-1.91,0.14s-1.25-0.26-1.7-0.79c-0.45-0.53-0.68-1.43-0.68-2.71c0-1.28,0.08-2.2,0.23-2.78
			c0.16-0.58,0.37-0.99,0.65-1.24c0.5-0.4,1.12-0.61,1.87-0.61l1.54,0.19v-4.81c0-0.72,0.02-1.24,0.07-1.59
			c0.05-0.34,0.19-0.72,0.44-1.12c0.4-0.78,1.6-1.17,3.59-1.17c2.12,0,3.38,0.58,3.78,1.73c0.16,0.5,0.23,1.29,0.23,2.38v4.57
			c1.37-0.12,2.4-0.19,3.1-0.19c0.7,0,1.23,0.02,1.59,0.07c0.36,0.05,0.77,0.19,1.24,0.44c0.81,0.4,1.21,1.6,1.21,3.59
			c0,1.96-0.42,3.16-1.26,3.59c-0.47,0.22-0.88,0.35-1.24,0.4C168.21,48.98,167.68,49,166.96,49z"/>
	</g>
</g>
<g>
	<g>
		<path class="st1" d="M188.54,49l-3.03-0.19v6.44c0,0.84,0.13,1.45,0.4,1.82c0.26,0.37,0.76,0.56,1.49,0.56
			c0.73,0,1.29,0.02,1.68,0.07c0.39,0.05,0.8,0.19,1.24,0.44c0.72,0.4,1.07,1.45,1.07,3.13c0,1.96-0.44,3.16-1.31,3.59
			c-0.47,0.22-0.88,0.35-1.24,0.4c-0.36,0.05-0.88,0.07-1.56,0.07c-3.24,0-5.69-0.73-7.38-2.19c-1.68-1.46-2.52-3.94-2.52-7.42
			v-6.91c-0.59,0.09-1.23,0.14-1.91,0.14c-0.69,0-1.25-0.26-1.7-0.79s-0.68-1.43-0.68-2.71c0-1.28,0.08-2.2,0.23-2.78
			c0.16-0.58,0.37-0.99,0.65-1.24c0.5-0.4,1.12-0.61,1.87-0.61l1.54,0.19v-4.81c0-0.72,0.02-1.24,0.07-1.59
			c0.05-0.34,0.19-0.72,0.44-1.12c0.4-0.78,1.6-1.17,3.59-1.17c2.12,0,3.38,0.58,3.78,1.73c0.16,0.5,0.23,1.29,0.23,2.38v4.57
			c1.37-0.12,2.4-0.19,3.1-0.19s1.23,0.02,1.59,0.07c0.36,0.05,0.77,0.19,1.24,0.44c0.81,0.4,1.21,1.6,1.21,3.59
			c0,1.96-0.42,3.16-1.26,3.59c-0.47,0.22-0.88,0.35-1.24,0.4C189.79,48.98,189.26,49,188.54,49z"/>
		<path class="st1" d="M202.89,36.19c-0.23,0.45-0.65,0.77-1.24,0.96c-0.59,0.19-1.38,0.28-2.36,0.28s-1.77-0.09-2.36-0.28
			c-0.59-0.19-1-0.51-1.24-0.98s-0.37-0.88-0.42-1.24c-0.05-0.36-0.07-0.89-0.07-1.61c0-0.72,0.02-1.25,0.07-1.61
			c0.05-0.36,0.18-0.75,0.4-1.19c0.44-0.84,1.65-1.26,3.64-1.26c1.96,0,3.14,0.42,3.55,1.26c0.25,0.47,0.4,0.88,0.44,1.24
			c0.05,0.36,0.07,0.89,0.07,1.61s-0.02,1.25-0.07,1.61C203.27,35.33,203.13,35.74,202.89,36.19z M195.21,44.84
			c0-0.72,0.02-1.25,0.07-1.61c0.05-0.36,0.18-0.77,0.4-1.24c0.44-0.81,1.65-1.21,3.64-1.21c1.49,0,2.55,0.26,3.17,0.79
			c0.53,0.44,0.81,1.1,0.84,2.01c0.03,0.31,0.05,0.76,0.05,1.35v16.34c0,0.72-0.02,1.25-0.07,1.61c-0.05,0.36-0.19,0.77-0.44,1.24
			c-0.4,0.81-1.6,1.21-3.59,1.21c-1.96,0-3.16-0.42-3.59-1.26c-0.22-0.47-0.35-0.87-0.4-1.21c-0.05-0.34-0.07-0.89-0.07-1.63V44.84z
			"/>
		<path class="st1" d="M214.35,57.63c0.53,0.53,0.79,1.62,0.79,3.27v0.19c0,0.75-0.02,1.3-0.07,1.66c-0.05,0.36-0.21,0.79-0.49,1.28
			c-0.47,0.9-1.64,1.35-3.52,1.35s-3.13-0.3-3.73-0.89c-0.61-0.59-0.91-1.71-0.91-3.36v-0.19c0-0.71,0.02-1.26,0.07-1.63
			c0.05-0.37,0.19-0.79,0.44-1.26c0.47-0.93,1.64-1.4,3.52-1.4C212.34,56.65,213.63,56.98,214.35,57.63z"/>
		<path class="st1" d="M248.7,40.92c1.99,0.87,2.99,1.94,2.99,3.22c0,0.53-0.25,1.38-0.75,2.54s-0.92,2.19-1.26,3.06l-5.13,12.51
			c-0.47,1.37-1.25,2.33-2.33,2.89c-0.47,0.22-1.06,0.33-1.77,0.33c-0.72,0-1.41-0.27-2.08-0.82c-0.67-0.54-1.11-1.1-1.33-1.66
			l-0.37-0.79c-0.25-0.62-1.17-3.05-2.75-7.28c-0.31,0.75-0.77,1.97-1.38,3.66c-0.61,1.7-1,2.75-1.17,3.17
			c-0.17,0.42-0.28,0.7-0.33,0.84s-0.18,0.4-0.4,0.77c-0.22,0.37-0.47,0.7-0.75,0.98c-0.75,0.75-1.6,1.12-2.57,1.12
			s-1.77-0.27-2.43-0.82c-0.65-0.54-1.09-1.1-1.31-1.66l-7.05-17.18c-0.31-0.93-0.47-1.54-0.47-1.82c0-1.24,0.89-2.22,2.66-2.94
			c1-0.4,1.8-0.61,2.43-0.61c0.62,0,1.13,0.13,1.52,0.4c0.39,0.26,0.66,0.53,0.82,0.79c0.16,0.26,0.28,0.54,0.37,0.82
			c0.53,1.25,1.63,4.17,3.31,8.78l2.75-7.56c0.19-0.62,0.53-1.17,1.03-1.63c0.9-0.9,1.82-1.35,2.75-1.35s1.73,0.25,2.4,0.75
			c0.67,0.5,1.13,1,1.38,1.49l0.37,0.79c1.56,4.36,2.47,6.85,2.75,7.47l2.85-7.75c0.75-1.99,1.87-2.99,3.36-2.99
			C247.43,40.46,248.05,40.61,248.7,40.92z"/>
		<path class="st1" d="M256.55,43.82c2.61-2.43,5.6-3.64,8.96-3.64s6.33,1.21,8.92,3.62c2.58,2.41,3.87,5.48,3.87,9.22
			c0,2.58-0.67,4.88-2.01,6.88c-1.34,2.01-2.96,3.49-4.88,4.43c-1.91,0.95-3.9,1.42-5.95,1.42s-4.04-0.5-5.97-1.52
			c-1.93-1.01-3.56-2.5-4.88-4.48c-1.32-1.98-1.98-4.21-1.98-6.7C252.63,49.33,253.93,46.25,256.55,43.82z M262.38,56.4
			c1,0.76,2.01,1.14,3.03,1.14c1.03,0,2.05-0.39,3.08-1.17c1.03-0.78,1.54-1.93,1.54-3.45s-0.48-2.66-1.45-3.41
			c-0.96-0.75-2.01-1.12-3.13-1.12s-2.16,0.39-3.13,1.17c-0.96,0.78-1.45,1.92-1.45,3.43C260.89,54.5,261.38,55.64,262.38,56.4z"/>
		<path class="st1" d="M298.04,41.02c0.59,0.19,1.08,0.51,1.47,0.96c0.39,0.45,0.58,1.17,0.58,2.17c0,1-0.3,2.09-0.89,3.27
			c-0.59,1.18-1.45,1.77-2.57,1.77c-0.56,0-1.1-0.12-1.61-0.37c-0.51-0.25-1.19-0.37-2.03-0.37c-0.84,0-1.63,0.3-2.36,0.89
			c-0.73,0.59-1.1,1.31-1.1,2.15v9.8c0,0.72-0.02,1.25-0.07,1.61s-0.19,0.77-0.44,1.24c-0.47,0.81-1.68,1.21-3.64,1.21
			c-1.49,0-2.57-0.26-3.22-0.79c-0.5-0.43-0.78-1.1-0.84-2.01c0-0.31,0-0.76,0-1.35V44.8c0-0.72,0.02-1.25,0.07-1.61
			c0.05-0.36,0.18-0.75,0.4-1.19c0.44-0.84,1.65-1.26,3.64-1.26c1.87,0,3.03,0.36,3.5,1.07c0.34,0.5,0.51,1.01,0.51,1.54
			c0.16-0.22,0.38-0.48,0.68-0.79c0.29-0.31,0.93-0.73,1.89-1.26c0.96-0.53,1.81-0.79,2.54-0.79c0.73,0,1.34,0.04,1.84,0.12
			S297.45,40.83,298.04,41.02z"/>
		<path class="st1" d="M317.13,53.01l6.21,5.13c0.78,0.65,1.27,1.15,1.47,1.49c0.2,0.34,0.3,0.67,0.3,0.98
			c0,0.75-0.48,1.76-1.45,3.03c-1.06,1.31-1.99,1.96-2.8,1.96c-0.69,0-1.63-0.45-2.85-1.35l-0.47-0.33
			c-0.72-0.59-1.82-1.62-3.31-3.1c-1.49-1.48-2.63-2.53-3.41-3.15v3.59c0,0.72-0.02,1.25-0.07,1.61s-0.19,0.77-0.44,1.24
			c-0.4,0.81-1.6,1.21-3.59,1.21c-1.96,0-3.16-0.42-3.59-1.26c-0.22-0.47-0.35-0.88-0.4-1.24c-0.05-0.36-0.07-0.89-0.07-1.61V33.27
			c0-0.72,0.02-1.25,0.07-1.61c0.05-0.36,0.18-0.77,0.4-1.24c0.44-0.84,1.65-1.26,3.64-1.26c1.49,0,2.55,0.26,3.17,0.79
			c0.53,0.44,0.81,1.12,0.84,2.05c0.03,0.28,0.05,0.72,0.05,1.31v14.8c0.56-0.47,1.41-1.26,2.54-2.38c1.13-1.12,1.98-1.91,2.54-2.38
			l0.56-0.37c1.09-0.84,2.02-1.26,2.8-1.26c0.78,0,1.67,0.63,2.68,1.89c1.01,1.26,1.52,2.25,1.52,2.96c0,0.72-0.58,1.56-1.73,2.52
			L317.13,53.01z"/>
		<path class="st1" d="M327.86,63.14c-0.59-0.37-0.89-0.96-0.89-1.77c0-0.81,0.59-2.04,1.77-3.69c0.34-0.53,0.89-0.79,1.66-0.79
			c0.76,0,1.8,0.38,3.1,1.14c1.31,0.76,2.49,1.14,3.55,1.14c1.9,0,2.85-0.37,2.85-1.12c0-0.59-1.04-1.03-3.13-1.31
			c-1.96-0.28-3.91-1.01-5.83-2.19c-0.9-0.56-1.65-1.44-2.24-2.64c-0.59-1.2-0.89-2.62-0.89-4.27c0-4.92,3.38-7.38,10.13-7.38
			c2.21,0,4.48,0.53,6.81,1.59c1.09,0.5,1.63,1.12,1.63,1.87c0,0.75-0.34,1.67-1.03,2.75c-0.68,1.09-1.38,1.63-2.1,1.63
			c-0.37,0-1.07-0.23-2.08-0.7c-1.01-0.47-2.11-0.7-3.29-0.7c-1.84,0-2.75,0.34-2.75,1.03c0,0.93,1.06,1.54,3.17,1.82
			c2.05,0.22,4.04,0.81,5.97,1.77c0.9,0.44,1.66,1.19,2.26,2.26c0.61,1.07,0.91,2.42,0.91,4.04c0,1.62-0.3,3-0.91,4.13
			c-0.61,1.14-1.46,1.98-2.54,2.54c-1.99,0.96-4.49,1.45-7.49,1.45C333.52,65.76,330.63,64.88,327.86,63.14z"/>
	</g>
</g>
</svg>
